<svg xmlns="http://www.w3.org/2000/svg" xmlns:xlink="http://www.w3.org/1999/xlink" xmlns:lucid="lucid" width="1476" height="802.07"><g transform="translate(-172 -241.56943296253428)" lucid:page-tab-id="59z~I6xs36lp"><path d="M0 0h1760v1360H0z" fill="#fff"/><path d="M878.4 819.64c0-3.3 2.7-6 6-6h390.42c3.3 0 6 2.7 6 6v192c0 3.3-2.7 6-6 6h-390.4c-3.33 0-6-2.7-6-6z" stroke="#5e5e5e" stroke-width="3" fill="#c7e8ac" fill-opacity=".3"/><path d="M224 566c0-3.3 2.7-6 6-6h1220c3.3 0 6 2.7 6 6v196c0 3.3-2.7 6-6 6H230c-3.3 0-6-2.7-6-6z" stroke="#5e5e5e" stroke-width="3" fill="#ffeca9" fill-opacity=".3"/><path d="M878.4 315.57c0-3.3 2.7-6 6-6h362.07c3.3 0 6 2.7 6 6v189.98c0 3.3-2.7 6-6 6H884.4c-3.3 0-6-2.7-6-6z" stroke="#5e5e5e" stroke-width="3" fill="#ffbbb1" fill-opacity=".3"/><path d="M241.6 357.55c0-3.32 2.68-6 6-6h96c3.3 0 6 2.68 6 6v79c-18.05-14.2-29.28-14.2-36.08-14.2-10.8 0-25.17 14.2-35.97 14.2-6.7 0-18.03 0-35.96-14.2z" stroke="#5e5e5e" stroke-width="3" fill="#fff"/><path d="M247.6 365.05c0-3.32 2.68-6 6-6h96c3.3 0 6 2.68 6 6v79c-18.05-14.2-29.28-14.2-36.08-14.2-10.8 0-25.17 14.2-35.97 14.2-6.7 0-18.03 0-35.96-14.2z" stroke="#5e5e5e" stroke-width="3" fill="#fff"/><path d="M253.6 372.55c0-3.32 2.68-6 6-6h96c3.3 0 6 2.68 6 6v79c-18.05-14.2-29.28-14.2-36.08-14.2-10.8 0-25.17 14.2-35.97 14.2-6.7 0-18.03 0-35.96-14.2z" stroke="#5e5e5e" stroke-width="3" fill="#fff"/><use xlink:href="#a" transform="matrix(1,0,0,1,258.58973818591767,371.5481255416503) translate(15.759259259259267 21.611111111111114)"/><use xlink:href="#b" transform="matrix(1,0,0,1,258.58973818591767,371.5481255416503) translate(20.049382716049386 48.277777777777786)"/><path d="M938.4 344.37c0-3.32 2.7-6 6-6h78.85c3.32 0 6 2.68 6 6v114.48c0 3.32-2.68 6-6 6H944.4c-3.3 0-6-2.68-6-6z" stroke="#5e5e5e" stroke-width="5" fill="#fff"/><use xlink:href="#c" transform="matrix(1,0,0,1,950.4055047246217,350.3677240857352) translate(8.808641975308642 43.52777777777778)"/><use xlink:href="#d" transform="matrix(1,0,0,1,950.4055047246217,350.3677240857352) translate(6.401234567901238 70.19444444444446)"/><use xlink:href="#e" transform="matrix(1,0,0,1,950.4055047246217,350.3677240857352) translate(48.25308641975309 70.19444444444446)"/><path d="M1115.4 344.44c0-3.32 2.68-6 6-6h78.84c3.32 0 6 2.68 6 6v114.48c0 3.32-2.68 6-6 6h-78.84c-3.32 0-6-2.68-6-6z" stroke="#5e5e5e" stroke-width="5" fill="#fff"/><use xlink:href="#c" transform="matrix(1,0,0,1,1127.3980430947088,350.4380977285514) translate(8.808641975308642 43.52777777777778)"/><use xlink:href="#d" transform="matrix(1,0,0,1,1127.3980430947088,350.4380977285514) translate(6.401234567901238 70.19444444444446)"/><use xlink:href="#f" transform="matrix(1,0,0,1,1127.3980430947088,350.4380977285514) translate(48.25308641975309 70.19444444444446)"/><path d="M364.1 401.8h38.83c3.3 0 6-2.7 6-6v-38.45c0-3.3 2.7-6 6-6h21.34" stroke="#5e5e5e" stroke-width="2" fill="none"/><path d="M364.12 402.8h-1.03v-2h1.02z" fill="#5e5e5e"/><path d="M451.53 351.35L437.27 356v-9.28z" stroke="#5e5e5e" stroke-width="2" fill="#5e5e5e"/><path d="M456.27 303.96c0-3.32 2.7-6 6-6h148c3.3 0 6 2.68 6 6v94.8c0 3.3-2.7 6-6 6h-148c-3.3 0-6-2.7-6-6z" stroke="#5e5e5e" stroke-width="3" fill="#fff"/><use xlink:href="#g" transform="matrix(1,0,0,1,468.2708004945712,309.95593491609145) translate(16.76543209876543 33.34027777777778)"/><use xlink:href="#h" transform="matrix(1,0,0,1,468.2708004945712,309.95593491609145) translate(95.77777777777777 33.34027777777778)"/><use xlink:href="#i" transform="matrix(1,0,0,1,468.2708004945712,309.95593491609145) translate(6.91975308641976 60.00694444444445)"/><use xlink:href="#j" transform="matrix(1,0,0,1,468.2708004945712,309.95593491609145) translate(79.69753086419753 60.00694444444445)"/><path d="M456.27 410.75c0-3.3 2.7-6 6-6h148c3.3 0 6 2.7 6 6v94.8c0 3.3-2.7 6-6 6h-148c-3.3 0-6-2.7-6-6z" stroke="#5e5e5e" stroke-width="3" fill="#fff"/><use xlink:href="#g" transform="matrix(1,0,0,1,468.2708004945712,416.7520302288708) translate(16.76543209876543 17.77777777777778)"/><use xlink:href="#h" transform="matrix(1,0,0,1,468.2708004945712,416.7520302288708) translate(95.77777777777777 17.77777777777778)"/><use xlink:href="#k" transform="matrix(1,0,0,1,468.2708004945712,416.7520302288708) translate(14.358024691358018 44.44444444444444)"/><use xlink:href="#j" transform="matrix(1,0,0,1,468.2708004945712,416.7520302288708) translate(43.308641975308646 71.11111111111111)"/><path d="M364.1 401.8h38.83c3.3 0 6 2.68 6 6v44.35c0 3.3 2.7 6 6 6h21.34" stroke="#5e5e5e" stroke-width="2" fill="none"/><path d="M364.12 402.8h-1.03v-2h1.02z" fill="#5e5e5e"/><path d="M451.53 458.15l-14.26 4.64v-9.3z" stroke="#5e5e5e" stroke-width="2" fill="#5e5e5e"/><path d="M618.77 458.15h38.84c3.33 0 6-2.7 6-6v-44.6c0-3.32 2.7-6 6-6h21.35" stroke="#5e5e5e" stroke-width="2" fill="none"/><path d="M618.8 459.15h-1.03v-2h1.03z" fill="#5e5e5e"/><path d="M706.22 401.55l-14.27 4.63v-9.27z" stroke="#5e5e5e" stroke-width="2" fill="#5e5e5e"/><path d="M710.95 357.55c0-3.32 2.7-6 6-6h96c3.32 0 6 2.68 6 6v79c-18.03-14.2-29.27-14.2-36.07-14.2-10.8 0-25.16 14.2-35.96 14.2-6.7 0-18.04 0-35.97-14.2z" stroke="#5e5e5e" stroke-width="3" fill="#fff"/><path d="M716.95 365.05c0-3.32 2.7-6 6-6h96c3.32 0 6 2.68 6 6v79c-18.03-14.2-29.27-14.2-36.07-14.2-10.8 0-25.16 14.2-35.96 14.2-6.7 0-18.04 0-35.97-14.2z" stroke="#5e5e5e" stroke-width="3" fill="#fff"/><path d="M722.95 372.55c0-3.32 2.7-6 6-6h96c3.32 0 6 2.68 6 6v79c-18.03-14.2-29.27-14.2-36.07-14.2-10.8 0-25.16 14.2-35.96 14.2-6.7 0-18.04 0-35.97-14.2z" stroke="#5e5e5e" stroke-width="3" fill="#fff"/><use xlink:href="#l" transform="matrix(1,0,0,1,727.9518628032247,371.5481255416503) translate(-1.8641975308642031 34.94444444444444)"/><path d="M618.77 351.35h38.84c3.33 0 6 2.7 6 6v38.2c0 3.3 2.7 6 6 6h21.35" stroke="#5e5e5e" stroke-width="2" fill="none"/><path d="M618.8 352.35h-1.03v-2h1.03z" fill="#5e5e5e"/><path d="M706.22 401.55l-14.27 4.63v-9.27z" stroke="#5e5e5e" stroke-width="2" fill="#5e5e5e"/><path d="M1032.75 401.6h39.54l.02.05c0 .02.02.03.04.03h22.04" stroke="#5e5e5e" stroke-width="2" fill="none"/><path d="M1032.78 402.6h-1.03v-2h1.03z" fill="#5e5e5e"/><path d="M1109.66 401.68l-14.26 4.64v-9.27z" stroke="#5e5e5e" stroke-width="2" fill="#5e5e5e"/><path d="M1032 357.55c0-3.32 2.7-6 6-6h68c3.32 0 6 2.68 6 6v48c0 3.3-2.68 6-6 6h-68c-3.3 0-6-2.7-6-6z" stroke="#000" stroke-opacity="0" stroke-width="3" fill="#fff" fill-opacity="0"/><use xlink:href="#m" transform="matrix(1,0,0,1,1037.0054908417192,356.5481255416503) translate(27.520987654320987 30.98888888888889)"/><path d="M833.45 401.8h50.72s0 .02.02.02h33.2" stroke="#5e5e5e" stroke-width="2" fill="none"/><path d="M833.48 402.8h-1.03v-2h1.03z" fill="#5e5e5e"/><path d="M932.67 401.82l-14.27 4.63v-9.27z" stroke="#5e5e5e" stroke-width="2" fill="#5e5e5e"/><path d="M1311.68 599.1c0-3.33 2.7-6 6-6h87.08c3.32 0 6 2.67 6 6v116c0 3.3-2.68 6-6 6h-87.08c-3.3 0-6-2.7-6-6z" stroke="#5e5e5e" stroke-width="5" fill="#fff"/><use xlink:href="#n" transform="matrix(1,0,0,1,1323.6790278449453,605.0871755548793) translate(13.308641975308642 43.77777777777778)"/><use xlink:href="#d" transform="matrix(1,0,0,1,1323.6790278449453,605.0871755548793) translate(1.6419753086419746 70.44444444444446)"/><use xlink:href="#o" transform="matrix(1,0,0,1,1323.6790278449453,605.0871755548793) translate(43.49382716049382 70.44444444444446)"/><path d="M1488 613.1c0-3.33 2.7-6 6-6h114c3.3 0 6 2.67 6 6v79c-21.04-14.2-34.15-14.2-42.08-14.2-12.6 0-29.36 14.2-41.96 14.2-7.8 0-21.04 0-41.96-14.2z" stroke="#5e5e5e" stroke-width="3" fill="#fff"/><path d="M1495 620.6c0-3.33 2.7-6 6-6h114c3.3 0 6 2.67 6 6v79c-21.04-14.2-34.15-14.2-42.08-14.2-12.6 0-29.36 14.2-41.96 14.2-7.8 0-21.04 0-41.96-14.2z" stroke="#5e5e5e" stroke-width="3" fill="#fff"/><path d="M1502 628.1c0-3.33 2.7-6 6-6h114c3.3 0 6 2.67 6 6v79c-21.04-14.2-34.15-14.2-42.08-14.2-12.6 0-29.36 14.2-41.96 14.2-7.8 0-21.04 0-41.96-14.2z" stroke="#5e5e5e" stroke-width="3" fill="#fff"/><use xlink:href="#p" transform="matrix(1,0,0,1,1507,627.0871755548793) translate(0.9629629629629548 34.94444444444444)"/><path d="M1130.23 599.1c0-3.33 2.7-6 6-6h87.08c3.33 0 6 2.67 6 6v116c0 3.3-2.67 6-6 6h-87.07c-3.3 0-6-2.7-6-6z" stroke="#5e5e5e" stroke-width="5" fill="#fff"/><use xlink:href="#n" transform="matrix(1,0,0,1,1142.2318470868581,605.0871755548793) translate(13.308641975308642 43.77777777777778)"/><use xlink:href="#d" transform="matrix(1,0,0,1,1142.2318470868581,605.0871755548793) translate(1.6419753086419746 70.44444444444446)"/><use xlink:href="#q" transform="matrix(1,0,0,1,1142.2318470868581,605.0871755548793) translate(43.49382716049382 70.44444444444446)"/><path d="M1308.18 657.1h-57.86" stroke="#5e5e5e" stroke-width="2" fill="none"/><path d="M1309.18 658.1h-1.03v-2h1.03z" fill="#5e5e5e"/><path d="M1235.05 657.1l14.27-4.65v9.27z" stroke="#5e5e5e" stroke-width="2" fill="#5e5e5e"/><path d="M1234.66 617.16c0-3.32 2.68-6 6-6h68c3.3 0 6 2.68 6 6v48c0 3.3-2.7 6-6 6h-68c-3.32 0-6-2.7-6-6z" stroke="#000" stroke-opacity="0" stroke-width="3" fill="#fff" fill-opacity="0"/><use xlink:href="#m" transform="matrix(1,0,0,1,1239.6572777708457,616.1566085174136) translate(27.520987654320987 30.98888888888889)"/><path d="M942.62 599.7c0-3.3 2.68-6 6-6h133c3.3 0 6 2.7 6 6v108c0 3.32-2.7 6-6 6h-133c-3.32 0-6-2.68-6-6z" stroke="#5e5e5e" stroke-width="3" fill="#fff"/><use xlink:href="#r" transform="matrix(1,0,0,1,954.6159235434291,605.701451548351) translate(17.938271604938272 26.77777777777778)"/><use xlink:href="#h" transform="matrix(1,0,0,1,954.6159235434291,605.701451548351) translate(79.60493827160494 26.77777777777778)"/><use xlink:href="#k" transform="matrix(1,0,0,1,954.6159235434291,605.701451548351) translate(6.858024691358018 53.44444444444445)"/><use xlink:href="#j" transform="matrix(1,0,0,1,954.6159235434291,605.701451548351) translate(35.808641975308646 80.11111111111111)"/><path d="M1126.73 657.1h-19.1" stroke="#5e5e5e" stroke-width="2" fill="none"/><path d="M1127.73 658.1h-1.02v-2h1.03z" fill="#5e5e5e"/><path d="M1092.35 657.1l14.27-4.65v9.27z" stroke="#5e5e5e" stroke-width="2" fill="#5e5e5e"/><path d="M940.12 653.7h-18.78c-.02 0-.03.02-.03.04s0 .03-.03.03H920" stroke="#5e5e5e" stroke-width="2" fill="none"/><path d="M941.12 654.7h-1.03v-2h1.02z" fill="#5e5e5e"/><path d="M904.74 653.77l14.26-4.63v9.27z" stroke="#5e5e5e" stroke-width="2" fill="#5e5e5e"/><path d="M780 609.77c0-3.3 2.7-6 6-6h96c3.3 0 6 2.7 6 6v79c-18.04-14.2-29.27-14.2-36.07-14.2-10.8 0-25.17 14.2-35.97 14.2-6.7 0-18.03 0-35.96-14.2z" stroke="#5e5e5e" stroke-width="3" fill="#fff"/><path d="M786 617.27c0-3.3 2.7-6 6-6h96c3.3 0 6 2.7 6 6v79c-18.04-14.2-29.27-14.2-36.07-14.2-10.8 0-25.17 14.2-35.97 14.2-6.7 0-18.03 0-35.96-14.2z" stroke="#5e5e5e" stroke-width="3" fill="#fff"/><path d="M792 624.77c0-3.3 2.7-6 6-6h96c3.3 0 6 2.7 6 6v79c-18.04-14.2-29.27-14.2-36.07-14.2-10.8 0-25.17 14.2-35.97 14.2-6.7 0-18.03 0-35.96-14.2z" stroke="#5e5e5e" stroke-width="3" fill="#fff"/><use xlink:href="#s" transform="matrix(1,0,0,1,797,623.7712071540049) translate(10.376543209876544 36.84027777777778)"/><path d="M597.02 609.77c0-3.3 2.7-6 6-6h108.44c3.32 0 6 2.7 6 6v79c-20.1-14.2-32.63-14.2-40.22-14.2-12.05 0-28.06 14.2-40.1 14.2-7.48 0-20.12 0-40.12-14.2z" stroke="#5e5e5e" stroke-width="3" fill="#fff"/><path d="M603.72 617.27c0-3.3 2.68-6 6-6h108.44c3.3 0 6 2.7 6 6v79c-20.12-14.2-32.64-14.2-40.23-14.2-12.05 0-28.06 14.2-40.1 14.2-7.47 0-20.12 0-40.1-14.2z" stroke="#5e5e5e" stroke-width="3" fill="#fff"/><path d="M610.4 624.77c0-3.3 2.7-6 6-6h108.45c3.3 0 6 2.7 6 6v79c-20.12-14.2-32.64-14.2-40.23-14.2-12.04 0-28.06 14.2-40.1 14.2-7.47 0-20.12 0-40.1-14.2z" stroke="#5e5e5e" stroke-width="3" fill="#fff"/><use xlink:href="#t" transform="matrix(1,0,0,1,615.4071428571428,623.7721350493779) translate(1.5493827160493794 34.94444444444444)"/><path d="M777.5 654.14h-26.65" stroke="#5e5e5e" stroke-width="2" fill="none"/><path d="M778.5 655.14h-1.03v-2h1.03z" fill="#5e5e5e"/><path d="M735.58 654.14l14.27-4.64v9.27z" stroke="#5e5e5e" stroke-width="2" fill="#5e5e5e"/><path d="M301.6 450.3V530c0 3.3 2.68 6 6 6h350.34c3.3 0 6 2.7 6 6v39.65" stroke="#0c7cba" stroke-width="3" fill="none"/><path d="M303.1 450.35h-3v-.8l3-1.5z" fill="#0c7cba"/><path d="M663.94 597.42l-4.64-14.27h9.27z" stroke="#0c7cba" stroke-width="3" fill="#0c7cba"/><path d="M260 595.77c0-3.3 2.7-6 6-6h99.64c3.32 0 6 2.7 6 6v116c0 3.32-2.68 6-6 6H266c-3.3 0-6-2.68-6-6z" stroke="#5e5e5e" stroke-width="5" fill="#fff"/><use xlink:href="#n" transform="matrix(1,0,0,1,272,601.7721350493779) translate(19.308641975308642 43.77777777777778)"/><use xlink:href="#d" transform="matrix(1,0,0,1,272,601.7721350493779) translate(7.641975308641975 70.44444444444446)"/><use xlink:href="#u" transform="matrix(1,0,0,1,272,601.7721350493779) translate(49.49382716049382 70.44444444444446)"/><path d="M436.23 595.77c0-3.3 2.68-6 6-6h99.64c3.32 0 6 2.7 6 6v116c0 3.32-2.68 6-6 6h-99.64c-3.32 0-6-2.68-6-6z" stroke="#5e5e5e" stroke-width="5" fill="#fff"/><use xlink:href="#n" transform="matrix(1,0,0,1,448.2285714285714,601.7721350493779) translate(19.308641975308642 43.77777777777778)"/><use xlink:href="#d" transform="matrix(1,0,0,1,448.2285714285714,601.7721350493779) translate(7.641975308641975 70.44444444444446)"/><use xlink:href="#v" transform="matrix(1,0,0,1,448.2285714285714,601.7721350493779) translate(49.49382716049382 70.44444444444446)"/><path d="M594.52 654.14h-21.5c-.05 0-.07-.03-.07-.06s-.03-.06-.06-.06h-4.03" stroke="#5e5e5e" stroke-width="2" fill="none"/><path d="M595.52 655.14h-1.02v-2h1.02z" fill="#5e5e5e"/><path d="M553.6 654.02l14.27-4.63v9.26z" stroke="#5e5e5e" stroke-width="2" fill="#5e5e5e"/><path d="M432.73 653.77h-40.1" stroke="#5e5e5e" stroke-width="2" fill="none"/><path d="M433.73 654.77h-1.03v-2h1.03z" fill="#5e5e5e"/><path d="M377.38 653.77l14.26-4.63v9.27z" stroke="#5e5e5e" stroke-width="2" fill="#5e5e5e"/><path d="M368 609.77c0-3.3 2.7-6 6-6h68c3.3 0 6 2.7 6 6v48c0 3.3-2.7 6-6 6h-68c-3.3 0-6-2.7-6-6z" stroke="#000" stroke-opacity="0" stroke-width="3" fill="#fff" fill-opacity="0"/><use xlink:href="#m" transform="matrix(1,0,0,1,373,608.7712071540049) translate(27.520987654320987 30.98888888888889)"/><path d="M721.6 859.53c0-3.32 2.68-6 6-6h96c3.3 0 6 2.68 6 6v79c-18.05-14.2-29.28-14.2-36.08-14.2-10.8 0-25.17 14.2-35.97 14.2-6.7 0-18.03 0-35.96-14.2z" stroke="#5e5e5e" stroke-width="3" fill="#fff"/><path d="M727.6 867.03c0-3.32 2.68-6 6-6h96c3.3 0 6 2.68 6 6v79c-18.05-14.2-29.28-14.2-36.08-14.2-10.8 0-25.17 14.2-35.97 14.2-6.7 0-18.03 0-35.96-14.2z" stroke="#5e5e5e" stroke-width="3" fill="#fff"/><path d="M733.6 874.53c0-3.32 2.68-6 6-6h96c3.3 0 6 2.68 6 6v79c-18.05-14.2-29.28-14.2-36.08-14.2-10.8 0-25.17 14.2-35.97 14.2-6.7 0-18.03 0-35.96-14.2z" stroke="#5e5e5e" stroke-width="3" fill="#fff"/><use xlink:href="#w" transform="matrix(1,0,0,1,738.5897381859177,873.5274484295467) translate(7.290123456790127 36.84027777777778)"/><use xlink:href="#x" transform="matrix(1,0,0,1,738.5897381859177,873.5274484295467) translate(39.327160493827165 36.84027777777778)"/><path d="M497.6 849.64c0-3.3 2.68-6 6-6h133c3.3 0 6 2.7 6 6v108c0 3.3-2.7 6-6 6h-133c-3.32 0-6-2.7-6-6z" stroke="#5e5e5e" stroke-width="3" fill="#fff"/><use xlink:href="#r" transform="matrix(1,0,0,1,509.58973818591767,855.6410472563294) translate(6.271604938271608 38.77777777777778)"/><use xlink:href="#y" transform="matrix(1,0,0,1,509.58973818591767,855.6410472563294) translate(67.93827160493828 38.77777777777778)"/><use xlink:href="#z" transform="matrix(1,0,0,1,509.58973818591767,855.6410472563294) translate(92.62962962962963 38.77777777777778)"/><use xlink:href="#A" transform="matrix(1,0,0,1,509.58973818591767,855.6410472563294) translate(30.901234567901234 65.44444444444446)"/><path d="M645.1 903.64h36.93c.03 0 .06-.02.06-.06 0-.03.02-.05.05-.05h19.44" stroke="#5e5e5e" stroke-width="2" fill="none"/><path d="M645.12 904.64h-1.03v-2h1.02z" fill="#5e5e5e"/><path d="M716.85 903.53l-14.26 4.63v-9.27z" stroke="#5e5e5e" stroke-width="2" fill="#5e5e5e"/><path d="M933.16 845.64c0-3.3 2.7-6 6-6h93.55c3.32 0 6 2.7 6 6v116c0 3.3-2.68 6-6 6h-93.54c-3.3 0-6-2.7-6-6z" stroke="#5e5e5e" stroke-width="5" fill="#fff"/><use xlink:href="#B" transform="matrix(1,0,0,1,945.1590622702906,851.6410472563294) translate(11.432098765432102 43.77777777777778)"/><use xlink:href="#d" transform="matrix(1,0,0,1,945.1590622702906,851.6410472563294) translate(13.901234567901238 70.44444444444446)"/><use xlink:href="#e" transform="matrix(1,0,0,1,945.1590622702906,851.6410472563294) translate(55.75308641975309 70.44444444444446)"/><path d="M1121.6 845.64c0-3.3 2.68-6 6-6h93.54c3.3 0 6 2.7 6 6v116c0 3.3-2.7 6-6 6h-93.55c-3.32 0-6-2.7-6-6z" stroke="#5e5e5e" stroke-width="5" fill="#fff"/><use xlink:href="#B" transform="matrix(1,0,0,1,1133.5897381859177,851.6410472563294) translate(11.432098765432102 43.77777777777778)"/><use xlink:href="#d" transform="matrix(1,0,0,1,1133.5897381859177,851.6410472563294) translate(13.901234567901238 70.44444444444446)"/><use xlink:href="#f" transform="matrix(1,0,0,1,1133.5897381859177,851.6410472563294) translate(55.75308641975309 70.44444444444446)"/><path d="M1042.2 903.64h58.4" stroke="#5e5e5e" stroke-width="2" fill="none"/><path d="M1042.23 904.64h-1.02v-2h1.03z" fill="#5e5e5e"/><path d="M1115.85 903.64l-14.26 4.64V899z" stroke="#5e5e5e" stroke-width="2" fill="#5e5e5e"/><path d="M844.1 903.9h68.06" stroke="#5e5e5e" stroke-width="2" fill="none"/><path d="M844.12 904.9h-1.03v-2h1.02z" fill="#5e5e5e"/><path d="M927.42 903.9l-14.26 4.63v-9.27z" stroke="#5e5e5e" stroke-width="2" fill="#5e5e5e"/><path d="M1039.6 859.64c0-3.3 2.7-6 6-6h68c3.33 0 6 2.7 6 6v48c0 3.3-2.67 6-6 6h-68c-3.3 0-6-2.7-6-6z" stroke="#000" stroke-opacity="0" stroke-width="3" fill="#fff" fill-opacity="0"/><use xlink:href="#m" transform="matrix(1,0,0,1,1044.6133810525223,858.6410472563294) translate(27.520987654320987 30.98888888888889)"/><path d="M1337.6 864.64c0-3.3 2.68-6 6-6h108c3.3 0 6 2.7 6 6v84c-20.05-15.03-32.53-15.03-40.1-15.03-12 0-27.95 15.04-39.95 15.04-7.44 0-20.04 0-39.96-15.03z" stroke="#5e5e5e" stroke-width="3" fill="#fff"/><use xlink:href="#C" transform="matrix(1,0,0,1,1342.5897381859177,863.6410472563294) translate(9.444444444444443 23.87152777777778)"/><use xlink:href="#D" transform="matrix(1,0,0,1,1342.5897381859177,863.6410472563294) translate(32.22222222222223 50.53819444444445)"/><path d="M1230.64 903.64h86.95" stroke="#5e5e5e" stroke-width="2" fill="none"/><path d="M1230.66 904.64h-1.02v-2h1.02z" fill="#5e5e5e"/><path d="M1332.85 903.64l-14.26 4.64V899z" stroke="#5e5e5e" stroke-width="2" fill="#5e5e5e"/><path d="M938.4 267.57c0-3.3 2.7-6 6-6h228c3.32 0 6 2.7 6 6v48c0 3.3-2.68 6-6 6h-228c-3.3 0-6-2.7-6-6z" stroke="#000" stroke-opacity="0" stroke-width="3" fill="#fff" fill-opacity="0"/><use xlink:href="#E" transform="matrix(1,0,0,1,943.4055047246216,266.5694329625343) translate(58.858024691358025 30.27777777777778)"/><use xlink:href="#F" transform="matrix(1,0,0,1,943.4055047246216,266.5694329625343) translate(116.88271604938271 30.27777777777778)"/><path d="M702.62 521.98c0-3.32 2.68-6 6-6h228c3.3 0 6 2.68 6 6v48c0 3.3-2.7 6-6 6h-228c-3.32 0-6-2.7-6-6z" stroke="#000" stroke-opacity="0" stroke-width="3" fill="#fff" fill-opacity="0"/><use xlink:href="#G" transform="matrix(1,0,0,1,707.6159235434291,520.978692579116) translate(58.27160493827161 30.27777777777778)"/><use xlink:href="#F" transform="matrix(1,0,0,1,707.6159235434291,520.978692579116) translate(117.46913580246914 30.27777777777778)"/><path d="M966.24 774c0-3.3 2.7-6 6-6h228c3.32 0 6 2.7 6 6v48c0 3.3-2.68 6-6 6h-228c-3.3 0-6-2.7-6-6z" stroke="#000" stroke-opacity="0" stroke-width="3" fill="#fff" fill-opacity="0"/><use xlink:href="#H" transform="matrix(1,0,0,1,971.2444716661373,773) translate(52.746913580246925 30.27777777777778)"/><use xlink:href="#F" transform="matrix(1,0,0,1,971.2444716661373,773) translate(122.99382716049382 30.27777777777778)"/><path d="M1335.65 357.62c0-3.32 2.7-6 6-6h114c3.3 0 6 2.68 6 6v79.05c-21.04-14.2-34.15-14.2-42.08-14.2-12.6 0-29.36 14.2-41.96 14.2-7.8 0-21.03 0-41.95-14.2z" stroke="#5e5e5e" stroke-width="3" fill="#fff"/><path d="M1342.65 365.12c0-3.3 2.7-6 6-6h114c3.3 0 6 2.7 6 6v79.05c-21.04-14.2-34.15-14.2-42.08-14.2-12.6 0-29.36 14.2-41.96 14.2-7.8 0-21.03 0-41.95-14.2z" stroke="#5e5e5e" stroke-width="3" fill="#fff"/><path d="M1349.65 372.63c0-3.32 2.7-6 6-6h114c3.3 0 6 2.68 6 6v79.04c-21.04-14.2-34.15-14.2-42.08-14.2-12.6 0-29.36 14.2-41.96 14.2-7.8 0-21.03 0-41.95-14.2z" stroke="#5e5e5e" stroke-width="3" fill="#fff"/><use xlink:href="#I" transform="matrix(1,0,0,1,1354.6502556494593,371.62594627946066) translate(15.29012345679012 36.84027777777778)"/><path d="M1209.74 401.68h61.7c.02 0 .03 0 .03-.02H1315.7" stroke="#5e5e5e" stroke-width="2" fill="none"/><path d="M1209.77 402.68h-1.03v-2h1.03z" fill="#5e5e5e"/><path d="M1330.96 401.65l-14.26 4.63V397z" stroke="#5e5e5e" stroke-width="2" fill="#5e5e5e"/><path d="M1485.53 657.38h-53.77" stroke="#5e5e5e" stroke-width="2" fill="none"/><path d="M1486.53 658.38h-1.02v-2h1.03z" fill="#5e5e5e"/><path d="M1416.5 657.38l14.26-4.64V662z" stroke="#5e5e5e" stroke-width="2" fill="#5e5e5e"/><path d="M1280.82 305.55c0-3.32 2.7-6 6-6h228c3.3 0 6 2.68 6 6v48c0 3.3-2.7 6-6 6h-228c-3.3 0-6-2.7-6-6z" stroke="#000" stroke-opacity="0" stroke-width="3" fill="#fff" fill-opacity="0"/><use xlink:href="#J" transform="matrix(1,0,0,1,1285.821257380423,304.5481255416503) translate(47.160493827160494 30.27777777777778)"/><use xlink:href="#K" transform="matrix(1,0,0,1,1285.821257380423,304.5481255416503) translate(102.71604938271605 30.27777777777778)"/><path d="M301.6 859.64c0-3.3 2.68-6 6-6h96c3.3 0 6 2.7 6 6v79c-18.05-14.2-29.28-14.2-36.08-14.2-10.8 0-25.17 14.2-35.97 14.2-6.7 0-18.03 0-35.96-14.2z" stroke="#5e5e5e" stroke-width="3" fill="#fff"/><path d="M307.6 867.14c0-3.3 2.68-6 6-6h96c3.3 0 6 2.7 6 6v79c-18.05-14.2-29.28-14.2-36.08-14.2-10.8 0-25.17 14.2-35.97 14.2-6.7 0-18.03 0-35.96-14.2z" stroke="#5e5e5e" stroke-width="3" fill="#fff"/><path d="M313.6 874.64c0-3.3 2.68-6 6-6h96c3.3 0 6 2.7 6 6v79c-18.05-14.2-29.28-14.2-36.08-14.2-10.8 0-25.17 14.2-35.97 14.2-6.7 0-18.03 0-35.96-14.2z" stroke="#5e5e5e" stroke-width="3" fill="#fff"/><g><use xlink:href="#L" transform="matrix(1,0,0,1,318.58973818591767,873.6410472563294) translate(7.290123456790127 36.84027777777778)"/><use xlink:href="#x" transform="matrix(1,0,0,1,318.58973818591767,873.6410472563294) translate(39.327160493827165 36.84027777777778)"/></g><path d="M424.1 904h53.5" stroke="#5e5e5e" stroke-width="2" fill="none"/><path d="M424.12 905h-1.03v-2h1.02z" fill="#5e5e5e"/><path d="M492.85 904l-14.26 4.64v-9.27z" stroke="#5e5e5e" stroke-width="2" fill="#5e5e5e"/><path d="M256.5 653.77h-56.9c-3.32 0-6 2.7-6 6v237.87c0 3.3 2.68 6 6 6h82" stroke="#5e5e5e" stroke-width="2" fill="none"/><path d="M257.5 654.77h-1.03v-2h1.03z" fill="#5e5e5e"/><path d="M296.85 903.64l-14.26 4.64V899z" stroke="#5e5e5e" stroke-width="2" fill="#5e5e5e"/><path d="M241.6 804.64c0-3.3 2.68-6 6-6h228c3.3 0 6 2.7 6 6v48c0 3.3-2.7 6-6 6h-228c-3.32 0-6-2.7-6-6z" stroke="#000" stroke-opacity="0" stroke-width="3" fill="#fff" fill-opacity="0"/><g><use xlink:href="#M" transform="matrix(1,0,0,1,246.58973818591767,803.6410472563294) translate(47.160493827160494 30.27777777777778)"/><use xlink:href="#K" transform="matrix(1,0,0,1,246.58973818591767,803.6410472563294) translate(102.71604938271605 30.27777777777778)"/></g><path d="M863.83 467.25c0-3.3 2.7-6 6-6h228c3.3 0 6 2.7 6 6v48c0 3.32-2.7 6-6 6h-228c-3.3 0-6-2.68-6-6z" stroke="#000" stroke-opacity="0" stroke-width="3" fill="#fff" fill-opacity="0"/><g><use xlink:href="#N" transform="matrix(1,0,0,1,868.8287190103359,466.2548848426345) translate(73.7037037037037 30.27777777777778)"/></g><path d="M1040.82 467.55c0-3.32 2.7-6 6-6h228c3.3 0 6 2.68 6 6v48c0 3.3-2.7 6-6 6h-228c-3.3 0-6-2.7-6-6z" stroke="#000" stroke-opacity="0" stroke-width="3" fill="#fff" fill-opacity="0"/><g><use xlink:href="#O" transform="matrix(1,0,0,1,1045.821257380423,466.5481255416503) translate(67.53086419753086 30.27777777777778)"/></g><path d="M1234.06 727.1c0-3.33 2.7-6 6-6h228c3.3 0 6 2.67 6 6v48c0 3.3-2.7 6-6 6h-228c-3.3 0-6-2.7-6-6z" stroke="#000" stroke-opacity="0" stroke-width="3" fill="#fff" fill-opacity="0"/><g><use xlink:href="#P" transform="matrix(1,0,0,1,1239.0605174635416,726.0871755548793) translate(48.703703703703695 30.27777777777778)"/></g><path d="M1050 724.86c0-3.3 2.7-6 6-6h228c3.3 0 6 2.7 6 6v48c0 3.3-2.7 6-6 6h-228c-3.3 0-6-2.7-6-6z" stroke="#000" stroke-opacity="0" stroke-width="3" fill="#fff" fill-opacity="0"/><g><use xlink:href="#O" transform="matrix(1,0,0,1,1055,723.8593106042572) translate(67.53086419753086 30.27777777777778)"/></g><path d="M360 726c0-3.3 2.7-6 6-6h228c3.3 0 6 2.7 6 6v48c0 3.3-2.7 6-6 6H366c-3.3 0-6-2.7-6-6z" stroke="#000" stroke-opacity="0" stroke-width="3" fill="#fff" fill-opacity="0"/><g><use xlink:href="#P" transform="matrix(1,0,0,1,365,725) translate(48.703703703703695 30.27777777777778)"/></g><path d="M192 723.77c0-3.3 2.7-6 6-6h228c3.3 0 6 2.7 6 6v48c0 3.32-2.7 6-6 6H198c-3.3 0-6-2.68-6-6z" stroke="#000" stroke-opacity="0" stroke-width="3" fill="#fff" fill-opacity="0"/><g><use xlink:href="#O" transform="matrix(1,0,0,1,197,722.7721350493778) translate(67.53086419753086 30.27777777777778)"/></g><path d="M872 969.64c0-3.3 2.7-6 6-6h228c3.32 0 6 2.7 6 6v48c0 3.3-2.68 6-6 6H878c-3.3 0-6-2.7-6-6z" stroke="#000" stroke-opacity="0" stroke-width="3" fill="#fff" fill-opacity="0"/><g><use xlink:href="#O" transform="matrix(1,0,0,1,877.0054908417193,968.6410472563294) translate(67.53086419753086 30.27777777777778)"/></g><path d="M1054.36 969.64c0-3.3 2.7-6 6-6h228c3.32 0 6 2.7 6 6v48c0 3.3-2.68 6-6 6h-228c-3.3 0-6-2.7-6-6z" stroke="#000" stroke-opacity="0" stroke-width="3" fill="#fff" fill-opacity="0"/><g><use xlink:href="#Q" transform="matrix(1,0,0,1,1059.3635477097273,968.6410472563294) translate(79.87654320987654 30.27777777777778)"/></g><path d="M536.27 294.96v-21.4c0-3.33 2.7-6 6-6H1552c3.3 0 6 2.67 6 6v311.4" stroke="#0c7cba" stroke-width="3" fill="none"/><path d="M537.77 296.46h-3v-1.54h3z" fill="#0c7cba"/><path d="M1558 600.73l-4.64-14.26h9.28z" stroke="#0c7cba" stroke-width="3" fill="#0c7cba"/><path d="M1478.15 401.94H1552c3.3 0 6 2.68 6 6V587.1" stroke="#5e5e5e" stroke-width="2" fill="none"/><path d="M1478.18 402.94h-1.03v-2h1.03z" fill="#5e5e5e"/><path d="M1558 602.35l-4.64-14.26h9.28z" stroke="#5e5e5e" stroke-width="2" fill="#5e5e5e"/><defs><path fill="#333" d="M24 0v-248h52V0H24" id="R"/><path fill="#333" d="M175 0L67-191c6 58 2 128 3 191H24v-248h59L193-55c-6-58-2-129-3-193h46V0h-61" id="S"/><path fill="#333" d="M24-248c93 1 206-16 204 79-1 75-69 88-152 82V0H24v-248zm52 121c47 0 100 7 100-41 0-47-54-39-100-39v80" id="T"/><path fill="#333" d="M238-95c0 69-44 99-111 99C63 4 22-25 22-93v-155h51v151c-1 38 19 59 55 60 90 1 49-130 58-211h52v153" id="U"/><path fill="#333" d="M136-208V0H84v-208H4v-40h212v40h-80" id="V"/><g id="a"><use transform="matrix(0.06172839506172839,0,0,0.06172839506172839,0,0)" xlink:href="#R"/><use transform="matrix(0.06172839506172839,0,0,0.06172839506172839,6.172839506172839,0)" xlink:href="#S"/><use transform="matrix(0.06172839506172839,0,0,0.06172839506172839,22.160493827160494,0)" xlink:href="#T"/><use transform="matrix(0.06172839506172839,0,0,0.06172839506172839,36.9753086419753,0)" xlink:href="#U"/><use transform="matrix(0.06172839506172839,0,0,0.06172839506172839,52.962962962962955,0)" xlink:href="#V"/></g><path fill="#333" d="M87 75C49 33 22-17 22-94c0-76 28-126 65-167h31c-38 41-64 92-64 168S80 34 118 75H87" id="W"/><path fill="#333" d="M117-194c89-4 53 116 60 194h-32v-121c0-31-8-49-39-48C34-167 62-67 57 0H25l-1-190h30c1 10-1 24 2 32 11-22 29-35 61-36" id="X"/><path fill="#333" d="M68-38c1 34 0 65-14 84H32c9-13 17-26 17-46H33v-38h35" id="Y"/><path fill="#333" d="M155-56V0h-30v-56H8v-25l114-167h33v167h35v25h-35zm-30-156c-27 46-58 90-88 131h88v-131" id="Z"/><path fill="#333" d="M134-131c28 9 52 24 51 62-1 50-34 73-85 73S17-19 16-69c0-36 21-54 49-61-75-25-45-126 34-121 46 3 78 18 79 63 0 33-17 51-44 57zm-34-11c31 1 46-15 46-44 0-28-17-43-47-42-29 0-46 13-45 42 1 28 16 44 46 44zm1 122c35 0 51-18 51-52 0-30-18-46-53-46-33 0-51 17-51 47 0 34 19 51 53 51" id="aa"/><path fill="#333" d="M33-261c38 41 65 92 65 168S71 34 33 75H2C39 34 66-17 66-93S39-220 2-261h31" id="ab"/><g id="b"><use transform="matrix(0.06172839506172839,0,0,0.06172839506172839,0,0)" xlink:href="#W"/><use transform="matrix(0.06172839506172839,0,0,0.06172839506172839,7.345679012345679,0)" xlink:href="#X"/><use transform="matrix(0.06172839506172839,0,0,0.06172839506172839,19.691358024691358,0)" xlink:href="#Y"/><use transform="matrix(0.06172839506172839,0,0,0.06172839506172839,25.864197530864196,0)" xlink:href="#Z"/><use transform="matrix(0.06172839506172839,0,0,0.06172839506172839,38.20987654320987,0)" xlink:href="#aa"/><use transform="matrix(0.06172839506172839,0,0,0.06172839506172839,50.55555555555555,0)" xlink:href="#ab"/></g><path fill="#333" d="M100-194c63 0 86 42 84 106H49c0 40 14 67 53 68 26 1 43-12 49-29l28 8c-11 28-37 45-77 45C44 4 14-33 15-96c1-61 26-98 85-98zm52 81c6-60-76-77-97-28-3 7-6 17-6 28h103" id="ac"/><path fill="#333" d="M85-194c31 0 48 13 60 33l-1-100h32l1 261h-30c-2-10 0-23-3-31C134-8 116 4 85 4 32 4 16-35 15-94c0-66 23-100 70-100zm9 24c-40 0-46 34-46 75 0 40 6 74 45 74 42 0 51-32 51-76 0-42-9-74-50-73" id="ad"/><path fill="#333" d="M177-190C167-65 218 103 67 71c-23-6-38-20-44-43l32-5c15 47 100 32 89-28v-30C133-14 115 1 83 1 29 1 15-40 15-95c0-56 16-97 71-98 29-1 48 16 59 35 1-10 0-23 2-32h30zM94-22c36 0 50-32 50-73 0-42-14-75-50-75-39 0-46 34-46 75s6 73 46 73" id="ae"/><g id="c"><use transform="matrix(0.06172839506172839,0,0,0.06172839506172839,0,0)" xlink:href="#ac"/><use transform="matrix(0.06172839506172839,0,0,0.06172839506172839,12.345679012345679,0)" xlink:href="#ad"/><use transform="matrix(0.06172839506172839,0,0,0.06172839506172839,24.691358024691358,0)" xlink:href="#ae"/><use transform="matrix(0.06172839506172839,0,0,0.06172839506172839,37.03703703703704,0)" xlink:href="#ac"/></g><path fill="#333" d="M210-169c-67 3-38 105-44 169h-31v-121c0-29-5-50-35-48C34-165 62-65 56 0H25l-1-190h30c1 10-1 24 2 32 10-44 99-50 107 0 11-21 27-35 58-36 85-2 47 119 55 194h-31v-121c0-29-5-49-35-48" id="af"/><path fill="#333" d="M24 0v-261h32V0H24" id="ag"/><path fill="#333" d="M115-194c55 1 70 41 70 98S169 2 115 4C84 4 66-9 55-30l1 105H24l-1-265h31l2 30c10-21 28-34 59-34zm-8 174c40 0 45-34 45-75s-6-73-45-74c-42 0-51 32-51 76 0 43 10 73 51 73" id="ah"/><g id="d"><use transform="matrix(0.06172839506172839,0,0,0.06172839506172839,0,0)" xlink:href="#af"/><use transform="matrix(0.06172839506172839,0,0,0.06172839506172839,18.456790123456788,0)" xlink:href="#ag"/><use transform="matrix(0.06172839506172839,0,0,0.06172839506172839,23.33333333333333,0)" xlink:href="#ah"/></g><path fill="#333" d="M101-251c68 0 85 55 85 127S166 4 100 4C33 4 14-52 14-124c0-73 17-127 87-127zm-1 229c47 0 54-49 54-102s-4-102-53-102c-51 0-55 48-55 102 0 53 5 102 54 102" id="ai"/><use transform="matrix(0.06172839506172839,0,0,0.06172839506172839,0,0)" xlink:href="#ai" id="e"/><path fill="#333" d="M126-127c33 6 58 20 58 59 0 88-139 92-164 29-3-8-5-16-6-25l32-3c6 27 21 44 54 44 32 0 52-15 52-46 0-38-36-46-79-43v-28c39 1 72-4 72-42 0-27-17-43-46-43-28 0-47 15-49 41l-32-3c6-42 35-63 81-64 48-1 79 21 79 65 0 36-21 52-52 59" id="aj"/><use transform="matrix(0.06172839506172839,0,0,0.06172839506172839,0,0)" xlink:href="#aj" id="f"/><path fill="#333" d="M141 0L90-78 38 0H4l68-98-65-92h35l48 74 47-74h35l-64 92 68 98h-35" id="ak"/><path fill="#333" d="M141-36C126-15 110 5 73 4 37 3 15-17 15-53c-1-64 63-63 125-63 3-35-9-54-41-54-24 1-41 7-42 31l-33-3c5-37 33-52 76-52 45 0 72 20 72 64v82c-1 20 7 32 28 27v20c-31 9-61-2-59-35zM48-53c0 20 12 33 32 33 41-3 63-29 60-74-43 2-92-5-92 41" id="al"/><g id="g"><use transform="matrix(0.06172839506172839,0,0,0.06172839506172839,0,0)" xlink:href="#ac"/><use transform="matrix(0.06172839506172839,0,0,0.06172839506172839,12.345679012345679,0)" xlink:href="#ak"/><use transform="matrix(0.06172839506172839,0,0,0.06172839506172839,23.45679012345679,0)" xlink:href="#ah"/><use transform="matrix(0.06172839506172839,0,0,0.06172839506172839,35.80246913580247,0)" xlink:href="#al"/><use transform="matrix(0.06172839506172839,0,0,0.06172839506172839,48.148148148148145,0)" xlink:href="#X"/><use transform="matrix(0.06172839506172839,0,0,0.06172839506172839,60.49382716049382,0)" xlink:href="#ad"/></g><path fill="#333" d="M115-194c53 0 69 39 70 98 0 66-23 100-70 100C84 3 66-7 56-30L54 0H23l1-261h32v101c10-23 28-34 59-34zm-8 174c40 0 45-34 45-75 0-40-5-75-45-74-42 0-51 32-51 76 0 43 10 73 51 73" id="am"/><path fill="#333" d="M179-190L93 31C79 59 56 82 12 73V49c39 6 53-20 64-50L1-190h34L92-34l54-156h33" id="an"/><g id="h"><use transform="matrix(0.06172839506172839,0,0,0.06172839506172839,0,0)" xlink:href="#am"/><use transform="matrix(0.06172839506172839,0,0,0.06172839506172839,12.345679012345679,0)" xlink:href="#an"/></g><path fill="#333" d="M135-143c-3-34-86-38-87 0 15 53 115 12 119 90S17 21 10-45l28-5c4 36 97 45 98 0-10-56-113-15-118-90-4-57 82-63 122-42 12 7 21 19 24 35" id="ao"/><path fill="#333" d="M100-194c62-1 85 37 85 99 1 63-27 99-86 99S16-35 15-95c0-66 28-99 85-99zM99-20c44 1 53-31 53-75 0-43-8-75-51-75s-53 32-53 75 10 74 51 75" id="ap"/><path fill="#333" d="M84 4C-5 8 30-112 23-190h32v120c0 31 7 50 39 49 72-2 45-101 50-169h31l1 190h-30c-1-10 1-25-2-33-11 22-28 36-60 37" id="aq"/><path fill="#333" d="M114-163C36-179 61-72 57 0H25l-1-190h30c1 12-1 29 2 39 6-27 23-49 58-41v29" id="ar"/><path fill="#333" d="M96-169c-40 0-48 33-48 73s9 75 48 75c24 0 41-14 43-38l32 2c-6 37-31 61-74 61-59 0-76-41-82-99-10-93 101-131 147-64 4 7 5 14 7 22l-32 3c-4-21-16-35-41-35" id="as"/><g id="i"><use transform="matrix(0.06172839506172839,0,0,0.06172839506172839,0,0)" xlink:href="#ao"/><use transform="matrix(0.06172839506172839,0,0,0.06172839506172839,11.11111111111111,0)" xlink:href="#ap"/><use transform="matrix(0.06172839506172839,0,0,0.06172839506172839,23.45679012345679,0)" xlink:href="#aq"/><use transform="matrix(0.06172839506172839,0,0,0.06172839506172839,35.80246913580247,0)" xlink:href="#ar"/><use transform="matrix(0.06172839506172839,0,0,0.06172839506172839,43.148148148148145,0)" xlink:href="#as"/><use transform="matrix(0.06172839506172839,0,0,0.06172839506172839,54.25925925925925,0)" xlink:href="#ac"/></g><g id="j"><use transform="matrix(0.06172839506172839,0,0,0.06172839506172839,0,0)" xlink:href="#X"/><use transform="matrix(0.06172839506172839,0,0,0.06172839506172839,12.345679012345679,0)" xlink:href="#ap"/><use transform="matrix(0.06172839506172839,0,0,0.06172839506172839,24.691358024691358,0)" xlink:href="#ad"/><use transform="matrix(0.06172839506172839,0,0,0.06172839506172839,37.03703703703704,0)" xlink:href="#ac"/></g><path fill="#333" d="M59-47c-2 24 18 29 38 22v24C64 9 27 4 27-40v-127H5v-23h24l9-43h21v43h35v23H59v120" id="at"/><path fill="#333" d="M24-231v-30h32v30H24zM24 0v-190h32V0H24" id="au"/><g id="k"><use transform="matrix(0.06172839506172839,0,0,0.06172839506172839,0,0)" xlink:href="#ad"/><use transform="matrix(0.06172839506172839,0,0,0.06172839506172839,12.345679012345679,0)" xlink:href="#ac"/><use transform="matrix(0.06172839506172839,0,0,0.06172839506172839,24.691358024691358,0)" xlink:href="#ao"/><use transform="matrix(0.06172839506172839,0,0,0.06172839506172839,35.80246913580247,0)" xlink:href="#at"/><use transform="matrix(0.06172839506172839,0,0,0.06172839506172839,41.97530864197531,0)" xlink:href="#au"/><use transform="matrix(0.06172839506172839,0,0,0.06172839506172839,46.851851851851855,0)" xlink:href="#X"/><use transform="matrix(0.06172839506172839,0,0,0.06172839506172839,59.19753086419753,0)" xlink:href="#al"/><use transform="matrix(0.06172839506172839,0,0,0.06172839506172839,71.54320987654322,0)" xlink:href="#at"/><use transform="matrix(0.06172839506172839,0,0,0.06172839506172839,77.71604938271605,0)" xlink:href="#au"/><use transform="matrix(0.06172839506172839,0,0,0.06172839506172839,82.5925925925926,0)" xlink:href="#ap"/><use transform="matrix(0.06172839506172839,0,0,0.06172839506172839,94.93827160493828,0)" xlink:href="#X"/></g><path fill="#333" d="M63-70H37l-4-178h34zM33 0v-35h34V0H33" id="av"/><path fill="#333" d="M118-107v75H92v-75H18v-26h74v-75h26v75h74v26h-74" id="aw"/><g id="l"><use transform="matrix(0.06172839506172839,0,0,0.06172839506172839,0,0)" xlink:href="#W"/><use transform="matrix(0.06172839506172839,0,0,0.06172839506172839,7.345679012345679,0)" xlink:href="#X"/><use transform="matrix(0.06172839506172839,0,0,0.06172839506172839,19.691358024691358,0)" xlink:href="#av"/><use transform="matrix(0.06172839506172839,0,0,0.06172839506172839,25.864197530864196,0)" xlink:href="#Y"/><use transform="matrix(0.06172839506172839,0,0,0.06172839506172839,32.03703703703704,0)" xlink:href="#Z"/><use transform="matrix(0.06172839506172839,0,0,0.06172839506172839,44.382716049382715,0)" xlink:href="#aa"/><use transform="matrix(0.06172839506172839,0,0,0.06172839506172839,56.72839506172839,0)" xlink:href="#aw"/><use transform="matrix(0.06172839506172839,0,0,0.06172839506172839,69.69135802469135,0)" xlink:href="#Z"/><use transform="matrix(0.06172839506172839,0,0,0.06172839506172839,82.03703703703704,0)" xlink:href="#aa"/><use transform="matrix(0.06172839506172839,0,0,0.06172839506172839,94.38271604938272,0)" xlink:href="#ab"/></g><path fill="#202122" d="M155-194c48 1 62 44 63 95 0 64-29 98-88 102v72h-29V3C-12 10-10-185 89-194l3 23c-48 6-55 95-31 131 8 12 22 18 40 19 4-71-20-175 54-173zM130-21c42-2 55-31 55-79-1-35-5-66-29-71-45 11-20 99-26 150" id="ax"/><use transform="matrix(0.06419753086419754,0,0,0.06419753086419754,0,0)" xlink:href="#ax" id="m"/><g id="n"><use transform="matrix(0.06172839506172839,0,0,0.06172839506172839,0,0)" xlink:href="#X"/><use transform="matrix(0.06172839506172839,0,0,0.06172839506172839,12.345679012345679,0)" xlink:href="#ap"/><use transform="matrix(0.06172839506172839,0,0,0.06172839506172839,24.691358024691358,0)" xlink:href="#ad"/><use transform="matrix(0.06172839506172839,0,0,0.06172839506172839,37.03703703703704,0)" xlink:href="#ac"/></g><path fill="#333" d="M27 0v-27h64v-190l-56 39v-29l58-41h29v221h61V0H27" id="ay"/><path fill="#333" d="M33 0v-38h34V0H33" id="az"/><g id="o"><use transform="matrix(0.06172839506172839,0,0,0.06172839506172839,0,0)" xlink:href="#ay"/><use transform="matrix(0.06172839506172839,0,0,0.06172839506172839,12.345679012345679,0)" xlink:href="#az"/><use transform="matrix(0.06172839506172839,0,0,0.06172839506172839,18.51851851851852,0)" xlink:href="#ai"/></g><path fill="#333" d="M101-251c82-7 93 87 43 132L82-64C71-53 59-42 53-27h129V0H18c2-99 128-94 128-182 0-28-16-43-45-43s-46 15-49 41l-32-3c6-41 34-60 81-64" id="aA"/><g id="p"><use transform="matrix(0.06172839506172839,0,0,0.06172839506172839,0,0)" xlink:href="#W"/><use transform="matrix(0.06172839506172839,0,0,0.06172839506172839,7.345679012345679,0)" xlink:href="#X"/><use transform="matrix(0.06172839506172839,0,0,0.06172839506172839,19.691358024691358,0)" xlink:href="#av"/><use transform="matrix(0.06172839506172839,0,0,0.06172839506172839,25.864197530864196,0)" xlink:href="#Y"/><use transform="matrix(0.06172839506172839,0,0,0.06172839506172839,32.03703703703704,0)" xlink:href="#Z"/><use transform="matrix(0.06172839506172839,0,0,0.06172839506172839,44.382716049382715,0)" xlink:href="#aa"/><use transform="matrix(0.06172839506172839,0,0,0.06172839506172839,56.72839506172839,0)" xlink:href="#aw"/><use transform="matrix(0.06172839506172839,0,0,0.06172839506172839,69.69135802469135,0)" xlink:href="#ay"/><use transform="matrix(0.06172839506172839,0,0,0.06172839506172839,82.03703703703704,0)" xlink:href="#aA"/><use transform="matrix(0.06172839506172839,0,0,0.06172839506172839,94.38271604938272,0)" xlink:href="#aa"/><use transform="matrix(0.06172839506172839,0,0,0.06172839506172839,106.7283950617284,0)" xlink:href="#ab"/></g><g id="q"><use transform="matrix(0.06172839506172839,0,0,0.06172839506172839,0,0)" xlink:href="#ay"/><use transform="matrix(0.06172839506172839,0,0,0.06172839506172839,12.345679012345679,0)" xlink:href="#az"/><use transform="matrix(0.06172839506172839,0,0,0.06172839506172839,18.51851851851852,0)" xlink:href="#aj"/></g><g id="r"><use transform="matrix(0.06172839506172839,0,0,0.06172839506172839,0,0)" xlink:href="#af"/><use transform="matrix(0.06172839506172839,0,0,0.06172839506172839,18.456790123456788,0)" xlink:href="#ac"/><use transform="matrix(0.06172839506172839,0,0,0.06172839506172839,30.80246913580247,0)" xlink:href="#al"/><use transform="matrix(0.06172839506172839,0,0,0.06172839506172839,43.148148148148145,0)" xlink:href="#X"/></g><g id="s"><use transform="matrix(0.06172839506172839,0,0,0.06172839506172839,0,0)" xlink:href="#W"/><use transform="matrix(0.06172839506172839,0,0,0.06172839506172839,7.345679012345679,0)" xlink:href="#X"/><use transform="matrix(0.06172839506172839,0,0,0.06172839506172839,19.691358024691358,0)" xlink:href="#Y"/><use transform="matrix(0.06172839506172839,0,0,0.06172839506172839,25.864197530864196,0)" xlink:href="#ay"/><use transform="matrix(0.06172839506172839,0,0,0.06172839506172839,38.20987654320987,0)" xlink:href="#aA"/><use transform="matrix(0.06172839506172839,0,0,0.06172839506172839,50.55555555555555,0)" xlink:href="#aa"/><use transform="matrix(0.06172839506172839,0,0,0.06172839506172839,62.90123456790123,0)" xlink:href="#ab"/></g><g id="t"><use transform="matrix(0.06172839506172839,0,0,0.06172839506172839,0,0)" xlink:href="#W"/><use transform="matrix(0.06172839506172839,0,0,0.06172839506172839,7.345679012345679,0)" xlink:href="#X"/><use transform="matrix(0.06172839506172839,0,0,0.06172839506172839,19.691358024691358,0)" xlink:href="#Y"/><use transform="matrix(0.06172839506172839,0,0,0.06172839506172839,25.864197530864196,0)" xlink:href="#Z"/><use transform="matrix(0.06172839506172839,0,0,0.06172839506172839,38.20987654320987,0)" xlink:href="#aa"/><use transform="matrix(0.06172839506172839,0,0,0.06172839506172839,50.55555555555555,0)" xlink:href="#aw"/><use transform="matrix(0.06172839506172839,0,0,0.06172839506172839,63.51851851851851,0)" xlink:href="#ay"/><use transform="matrix(0.06172839506172839,0,0,0.06172839506172839,75.86419753086419,0)" xlink:href="#aA"/><use transform="matrix(0.06172839506172839,0,0,0.06172839506172839,88.20987654320987,0)" xlink:href="#aa"/><use transform="matrix(0.06172839506172839,0,0,0.06172839506172839,100.55555555555556,0)" xlink:href="#ab"/></g><g id="u"><use transform="matrix(0.06172839506172839,0,0,0.06172839506172839,0,0)" xlink:href="#aA"/><use transform="matrix(0.06172839506172839,0,0,0.06172839506172839,12.345679012345679,0)" xlink:href="#az"/><use transform="matrix(0.06172839506172839,0,0,0.06172839506172839,18.51851851851852,0)" xlink:href="#aj"/></g><g id="v"><use transform="matrix(0.06172839506172839,0,0,0.06172839506172839,0,0)" xlink:href="#aA"/><use transform="matrix(0.06172839506172839,0,0,0.06172839506172839,12.345679012345679,0)" xlink:href="#az"/><use transform="matrix(0.06172839506172839,0,0,0.06172839506172839,18.51851851851852,0)" xlink:href="#ai"/></g><g id="w"><use transform="matrix(0.06172839506172839,0,0,0.06172839506172839,0,0)" xlink:href="#W"/><use transform="matrix(0.06172839506172839,0,0,0.06172839506172839,7.345679012345679,0)" xlink:href="#ay"/><use transform="matrix(0.06172839506172839,0,0,0.06172839506172839,19.691358024691358,0)" xlink:href="#Y"/></g><g id="x"><use transform="matrix(0.06172839506172839,0,0,0.06172839506172839,0,0)" xlink:href="#ay"/><use transform="matrix(0.06172839506172839,0,0,0.06172839506172839,12.345679012345679,0)" xlink:href="#aA"/><use transform="matrix(0.06172839506172839,0,0,0.06172839506172839,24.691358024691358,0)" xlink:href="#aa"/><use transform="matrix(0.06172839506172839,0,0,0.06172839506172839,37.03703703703704,0)" xlink:href="#ab"/></g><path fill="#333" d="M101-234c-31-9-42 10-38 44h38v23H63V0H32v-167H5v-23h27c-7-52 17-82 69-68v24" id="aB"/><g id="y"><use transform="matrix(0.06172839506172839,0,0,0.06172839506172839,0,0)" xlink:href="#ap"/><use transform="matrix(0.06172839506172839,0,0,0.06172839506172839,12.345679012345679,0)" xlink:href="#aB"/></g><g id="z"><use transform="matrix(0.06172839506172839,0,0,0.06172839506172839,0,0)" xlink:href="#al"/><use transform="matrix(0.06172839506172839,0,0,0.06172839506172839,12.345679012345679,0)" xlink:href="#ag"/><use transform="matrix(0.06172839506172839,0,0,0.06172839506172839,17.22222222222222,0)" xlink:href="#ag"/></g><path fill="#333" d="M143 0L79-87 56-68V0H24v-261h32v163l83-92h37l-77 82L181 0h-38" id="aC"/><g id="A"><use transform="matrix(0.06172839506172839,0,0,0.06172839506172839,0,0)" xlink:href="#at"/><use transform="matrix(0.06172839506172839,0,0,0.06172839506172839,6.172839506172839,0)" xlink:href="#ar"/><use transform="matrix(0.06172839506172839,0,0,0.06172839506172839,13.518518518518519,0)" xlink:href="#al"/><use transform="matrix(0.06172839506172839,0,0,0.06172839506172839,25.864197530864196,0)" xlink:href="#as"/><use transform="matrix(0.06172839506172839,0,0,0.06172839506172839,36.9753086419753,0)" xlink:href="#aC"/><use transform="matrix(0.06172839506172839,0,0,0.06172839506172839,48.08641975308642,0)" xlink:href="#ao"/></g><g id="B"><use transform="matrix(0.06172839506172839,0,0,0.06172839506172839,0,0)" xlink:href="#ae"/><use transform="matrix(0.06172839506172839,0,0,0.06172839506172839,12.345679012345679,0)" xlink:href="#ag"/><use transform="matrix(0.06172839506172839,0,0,0.06172839506172839,17.22222222222222,0)" xlink:href="#ap"/><use transform="matrix(0.06172839506172839,0,0,0.06172839506172839,29.5679012345679,0)" xlink:href="#am"/><use transform="matrix(0.06172839506172839,0,0,0.06172839506172839,41.913580246913575,0)" xlink:href="#al"/><use transform="matrix(0.06172839506172839,0,0,0.06172839506172839,54.25925925925925,0)" xlink:href="#ag"/></g><path fill="#333" d="M140-251c80 0 125 45 125 126S219 4 139 4C58 4 15-44 15-125s44-126 125-126zm-1 214c52 0 73-35 73-88 0-50-21-86-72-86-52 0-73 35-73 86s22 88 72 88" id="aD"/><g id="C"><use transform="matrix(0.06172839506172839,0,0,0.06172839506172839,0,0)" xlink:href="#aD"/><use transform="matrix(0.06172839506172839,0,0,0.06172839506172839,17.28395061728395,0)" xlink:href="#U"/><use transform="matrix(0.06172839506172839,0,0,0.06172839506172839,33.2716049382716,0)" xlink:href="#V"/><use transform="matrix(0.06172839506172839,0,0,0.06172839506172839,46.79012345679012,0)" xlink:href="#T"/><use transform="matrix(0.06172839506172839,0,0,0.06172839506172839,61.60493827160494,0)" xlink:href="#U"/><use transform="matrix(0.06172839506172839,0,0,0.06172839506172839,77.5925925925926,0)" xlink:href="#V"/></g><g id="D"><use transform="matrix(0.06172839506172839,0,0,0.06172839506172839,0,0)" xlink:href="#W"/><use transform="matrix(0.06172839506172839,0,0,0.06172839506172839,7.345679012345679,0)" xlink:href="#ay"/><use transform="matrix(0.06172839506172839,0,0,0.06172839506172839,19.691358024691358,0)" xlink:href="#Y"/><use transform="matrix(0.06172839506172839,0,0,0.06172839506172839,25.864197530864196,0)" xlink:href="#aA"/><use transform="matrix(0.06172839506172839,0,0,0.06172839506172839,38.20987654320987,0)" xlink:href="#ab"/></g><path fill="#333" d="M30 0v-248h187v28H63v79h144v27H63v87h162V0H30" id="aE"/><g id="E"><use transform="matrix(0.06172839506172839,0,0,0.06172839506172839,0,0)" xlink:href="#aE"/><use transform="matrix(0.06172839506172839,0,0,0.06172839506172839,14.814814814814813,0)" xlink:href="#ad"/><use transform="matrix(0.06172839506172839,0,0,0.06172839506172839,27.160493827160494,0)" xlink:href="#ae"/><use transform="matrix(0.06172839506172839,0,0,0.06172839506172839,39.50617283950617,0)" xlink:href="#ac"/></g><path fill="#333" d="M160-131c35 5 61 23 61 61C221 17 115-2 30 0v-248c76 3 177-17 177 60 0 33-19 50-47 57zm-97-11c50-1 110 9 110-42 0-47-63-36-110-37v79zm0 115c55-2 124 14 124-45 0-56-70-42-124-44v89" id="aF"/><g id="F"><use transform="matrix(0.06172839506172839,0,0,0.06172839506172839,0,0)" xlink:href="#aF"/><use transform="matrix(0.06172839506172839,0,0,0.06172839506172839,14.814814814814813,0)" xlink:href="#ag"/><use transform="matrix(0.06172839506172839,0,0,0.06172839506172839,19.691358024691354,0)" xlink:href="#ap"/><use transform="matrix(0.06172839506172839,0,0,0.06172839506172839,32.03703703703703,0)" xlink:href="#as"/><use transform="matrix(0.06172839506172839,0,0,0.06172839506172839,43.14814814814814,0)" xlink:href="#aC"/></g><path fill="#333" d="M190 0L58-211 59 0H30v-248h39L202-35l-2-213h31V0h-41" id="aG"/><g id="G"><use transform="matrix(0.06172839506172839,0,0,0.06172839506172839,0,0)" xlink:href="#aG"/><use transform="matrix(0.06172839506172839,0,0,0.06172839506172839,15.987654320987653,0)" xlink:href="#ap"/><use transform="matrix(0.06172839506172839,0,0,0.06172839506172839,28.333333333333332,0)" xlink:href="#ad"/><use transform="matrix(0.06172839506172839,0,0,0.06172839506172839,40.67901234567901,0)" xlink:href="#ac"/></g><path fill="#333" d="M143 4C61 4 22-44 18-125c-5-107 100-154 193-111 17 8 29 25 37 43l-32 9c-13-25-37-40-76-40-61 0-88 39-88 99 0 61 29 100 91 101 35 0 62-11 79-27v-45h-74v-28h105v86C228-13 192 4 143 4" id="aH"/><g id="H"><use transform="matrix(0.06172839506172839,0,0,0.06172839506172839,0,0)" xlink:href="#aH"/><use transform="matrix(0.06172839506172839,0,0,0.06172839506172839,17.28395061728395,0)" xlink:href="#ag"/><use transform="matrix(0.06172839506172839,0,0,0.06172839506172839,22.160493827160494,0)" xlink:href="#ap"/><use transform="matrix(0.06172839506172839,0,0,0.06172839506172839,34.50617283950617,0)" xlink:href="#am"/><use transform="matrix(0.06172839506172839,0,0,0.06172839506172839,46.85185185185185,0)" xlink:href="#al"/><use transform="matrix(0.06172839506172839,0,0,0.06172839506172839,59.197530864197525,0)" xlink:href="#ag"/></g><g id="I"><use transform="matrix(0.06172839506172839,0,0,0.06172839506172839,0,0)" xlink:href="#W"/><use transform="matrix(0.06172839506172839,0,0,0.06172839506172839,7.345679012345679,0)" xlink:href="#X"/><use transform="matrix(0.06172839506172839,0,0,0.06172839506172839,19.691358024691358,0)" xlink:href="#av"/><use transform="matrix(0.06172839506172839,0,0,0.06172839506172839,25.864197530864196,0)" xlink:href="#Y"/><use transform="matrix(0.06172839506172839,0,0,0.06172839506172839,32.03703703703704,0)" xlink:href="#ay"/><use transform="matrix(0.06172839506172839,0,0,0.06172839506172839,44.382716049382715,0)" xlink:href="#aA"/><use transform="matrix(0.06172839506172839,0,0,0.06172839506172839,56.72839506172839,0)" xlink:href="#aa"/><use transform="matrix(0.06172839506172839,0,0,0.06172839506172839,69.07407407407408,0)" xlink:href="#ab"/></g><g id="J"><use transform="matrix(0.06172839506172839,0,0,0.06172839506172839,0,0)" xlink:href="#ac"/><use transform="matrix(0.06172839506172839,0,0,0.06172839506172839,12.345679012345679,0)" xlink:href="#ad"/><use transform="matrix(0.06172839506172839,0,0,0.06172839506172839,24.691358024691358,0)" xlink:href="#ae"/><use transform="matrix(0.06172839506172839,0,0,0.06172839506172839,37.03703703703704,0)" xlink:href="#ac"/></g><g id="K"><use transform="matrix(0.06172839506172839,0,0,0.06172839506172839,0,0)" xlink:href="#al"/><use transform="matrix(0.06172839506172839,0,0,0.06172839506172839,12.345679012345679,0)" xlink:href="#at"/><use transform="matrix(0.06172839506172839,0,0,0.06172839506172839,18.51851851851852,0)" xlink:href="#at"/><use transform="matrix(0.06172839506172839,0,0,0.06172839506172839,24.691358024691358,0)" xlink:href="#ar"/><use transform="matrix(0.06172839506172839,0,0,0.06172839506172839,32.03703703703704,0)" xlink:href="#au"/><use transform="matrix(0.06172839506172839,0,0,0.06172839506172839,36.91358024691358,0)" xlink:href="#am"/><use transform="matrix(0.06172839506172839,0,0,0.06172839506172839,49.25925925925926,0)" xlink:href="#aq"/><use transform="matrix(0.06172839506172839,0,0,0.06172839506172839,61.60493827160494,0)" xlink:href="#at"/><use transform="matrix(0.06172839506172839,0,0,0.06172839506172839,67.77777777777777,0)" xlink:href="#ac"/></g><g id="L"><use transform="matrix(0.06172839506172839,0,0,0.06172839506172839,0,0)" xlink:href="#W"/><use transform="matrix(0.06172839506172839,0,0,0.06172839506172839,7.345679012345679,0)" xlink:href="#X"/><use transform="matrix(0.06172839506172839,0,0,0.06172839506172839,19.691358024691358,0)" xlink:href="#Y"/></g><g id="M"><use transform="matrix(0.06172839506172839,0,0,0.06172839506172839,0,0)" xlink:href="#X"/><use transform="matrix(0.06172839506172839,0,0,0.06172839506172839,12.345679012345679,0)" xlink:href="#ap"/><use transform="matrix(0.06172839506172839,0,0,0.06172839506172839,24.691358024691358,0)" xlink:href="#ad"/><use transform="matrix(0.06172839506172839,0,0,0.06172839506172839,37.03703703703704,0)" xlink:href="#ac"/></g><path fill="#333" d="M99-251c64 0 84 50 84 122C183-37 130 33 47-8c-14-7-20-23-25-40l30-5c6 39 69 39 84 7 9-19 16-44 16-74-10 22-31 35-62 35-49 0-73-33-73-83 0-54 28-83 82-83zm-1 141c31-1 51-18 51-49 0-36-14-67-51-67-34 0-49 23-49 58 0 34 15 58 49 58" id="aI"/><path fill="#333" d="M110-160c48 1 74 30 74 79 0 53-28 85-80 85-65 0-83-55-86-122-5-90 50-162 133-122 14 7 22 21 27 39l-31 6c-5-40-67-38-82-6-9 19-15 44-15 74 11-20 30-34 60-33zm-7 138c34 0 49-23 49-58s-16-56-50-56c-29 0-50 16-49 49 1 36 15 65 50 65" id="aJ"/><g id="N"><use transform="matrix(0.06172839506172839,0,0,0.06172839506172839,0,0)" xlink:href="#W"/><use transform="matrix(0.06172839506172839,0,0,0.06172839506172839,7.345679012345679,0)" xlink:href="#aI"/><use transform="matrix(0.06172839506172839,0,0,0.06172839506172839,19.691358024691358,0)" xlink:href="#aJ"/><use transform="matrix(0.06172839506172839,0,0,0.06172839506172839,32.03703703703704,0)" xlink:href="#Y"/><use transform="matrix(0.06172839506172839,0,0,0.06172839506172839,38.20987654320988,0)" xlink:href="#ay"/><use transform="matrix(0.06172839506172839,0,0,0.06172839506172839,50.55555555555556,0)" xlink:href="#aA"/><use transform="matrix(0.06172839506172839,0,0,0.06172839506172839,62.901234567901234,0)" xlink:href="#aa"/><use transform="matrix(0.06172839506172839,0,0,0.06172839506172839,75.24691358024691,0)" xlink:href="#ab"/></g><g id="O"><use transform="matrix(0.06172839506172839,0,0,0.06172839506172839,0,0)" xlink:href="#W"/><use transform="matrix(0.06172839506172839,0,0,0.06172839506172839,7.345679012345679,0)" xlink:href="#ay"/><use transform="matrix(0.06172839506172839,0,0,0.06172839506172839,19.691358024691358,0)" xlink:href="#aA"/><use transform="matrix(0.06172839506172839,0,0,0.06172839506172839,32.03703703703704,0)" xlink:href="#aa"/><use transform="matrix(0.06172839506172839,0,0,0.06172839506172839,44.382716049382715,0)" xlink:href="#Y"/><use transform="matrix(0.06172839506172839,0,0,0.06172839506172839,50.55555555555556,0)" xlink:href="#ay"/><use transform="matrix(0.06172839506172839,0,0,0.06172839506172839,62.901234567901234,0)" xlink:href="#aA"/><use transform="matrix(0.06172839506172839,0,0,0.06172839506172839,75.24691358024691,0)" xlink:href="#aa"/><use transform="matrix(0.06172839506172839,0,0,0.06172839506172839,87.5925925925926,0)" xlink:href="#ab"/></g><g id="P"><use transform="matrix(0.06172839506172839,0,0,0.06172839506172839,0,0)" xlink:href="#W"/><use transform="matrix(0.06172839506172839,0,0,0.06172839506172839,7.345679012345679,0)" xlink:href="#Z"/><use transform="matrix(0.06172839506172839,0,0,0.06172839506172839,19.691358024691358,0)" xlink:href="#aa"/><use transform="matrix(0.06172839506172839,0,0,0.06172839506172839,32.03703703703704,0)" xlink:href="#aw"/><use transform="matrix(0.06172839506172839,0,0,0.06172839506172839,45,0)" xlink:href="#ay"/><use transform="matrix(0.06172839506172839,0,0,0.06172839506172839,57.34567901234568,0)" xlink:href="#aA"/><use transform="matrix(0.06172839506172839,0,0,0.06172839506172839,69.69135802469135,0)" xlink:href="#aa"/><use transform="matrix(0.06172839506172839,0,0,0.06172839506172839,82.03703703703704,0)" xlink:href="#Y"/><use transform="matrix(0.06172839506172839,0,0,0.06172839506172839,88.20987654320987,0)" xlink:href="#ay"/><use transform="matrix(0.06172839506172839,0,0,0.06172839506172839,100.55555555555556,0)" xlink:href="#aA"/><use transform="matrix(0.06172839506172839,0,0,0.06172839506172839,112.90123456790124,0)" xlink:href="#aa"/><use transform="matrix(0.06172839506172839,0,0,0.06172839506172839,125.24691358024693,0)" xlink:href="#ab"/></g><g id="Q"><use transform="matrix(0.06172839506172839,0,0,0.06172839506172839,0,0)" xlink:href="#W"/><use transform="matrix(0.06172839506172839,0,0,0.06172839506172839,7.345679012345679,0)" xlink:href="#ay"/><use transform="matrix(0.06172839506172839,0,0,0.06172839506172839,19.691358024691358,0)" xlink:href="#aA"/><use transform="matrix(0.06172839506172839,0,0,0.06172839506172839,32.03703703703704,0)" xlink:href="#aa"/><use transform="matrix(0.06172839506172839,0,0,0.06172839506172839,44.382716049382715,0)" xlink:href="#Y"/><use transform="matrix(0.06172839506172839,0,0,0.06172839506172839,50.55555555555556,0)" xlink:href="#aA"/><use transform="matrix(0.06172839506172839,0,0,0.06172839506172839,62.901234567901234,0)" xlink:href="#ab"/></g></defs></g></svg>